<mxfile host="app.diagrams.net" modified="2022-06-21T07:01:31.112Z" agent="5.0 (Windows NT 10.0; Win64; x64) AppleWebKit/537.36 (KHTML, like Gecko) Chrome/102.0.5005.115 Safari/537.36" etag="ubrDQgwZ0KEPp5XjqKox" version="20.0.1" type="github">
  <diagram id="BOh7agUmf3UPWmB1qQId" name="Page-1">
    <mxGraphModel dx="1422" dy="794" grid="1" gridSize="10" guides="1" tooltips="1" connect="1" arrows="1" fold="1" page="1" pageScale="1" pageWidth="850" pageHeight="1100" math="0" shadow="0">
      <root>
        <mxCell id="0" />
        <mxCell id="1" parent="0" />
        <mxCell id="IvsaoeaK_1PKzHFkuY8C-1" value="IWPS" style="swimlane;" vertex="1" parent="1">
          <mxGeometry x="10" y="80" width="200" height="890" as="geometry" />
        </mxCell>
        <mxCell id="IvsaoeaK_1PKzHFkuY8C-6" style="edgeStyle=orthogonalEdgeStyle;rounded=0;orthogonalLoop=1;jettySize=auto;html=1;exitX=0.5;exitY=1;exitDx=0;exitDy=0;entryX=0.5;entryY=0;entryDx=0;entryDy=0;" edge="1" parent="IvsaoeaK_1PKzHFkuY8C-1" source="IvsaoeaK_1PKzHFkuY8C-2" target="IvsaoeaK_1PKzHFkuY8C-3">
          <mxGeometry relative="1" as="geometry" />
        </mxCell>
        <mxCell id="IvsaoeaK_1PKzHFkuY8C-2" value="Start" style="ellipse;whiteSpace=wrap;html=1;fillColor=#d5e8d4;strokeColor=#82b366;" vertex="1" parent="IvsaoeaK_1PKzHFkuY8C-1">
          <mxGeometry x="62.5" y="40" width="75" height="50" as="geometry" />
        </mxCell>
        <mxCell id="IvsaoeaK_1PKzHFkuY8C-7" style="edgeStyle=orthogonalEdgeStyle;rounded=0;orthogonalLoop=1;jettySize=auto;html=1;exitX=0.5;exitY=1;exitDx=0;exitDy=0;entryX=0.5;entryY=0;entryDx=0;entryDy=0;" edge="1" parent="IvsaoeaK_1PKzHFkuY8C-1" source="IvsaoeaK_1PKzHFkuY8C-3" target="IvsaoeaK_1PKzHFkuY8C-4">
          <mxGeometry relative="1" as="geometry" />
        </mxCell>
        <mxCell id="IvsaoeaK_1PKzHFkuY8C-3" value="Officer triggers batch job on security bonds" style="rounded=0;whiteSpace=wrap;html=1;fillColor=#dae8fc;strokeColor=#6c8ebf;" vertex="1" parent="IvsaoeaK_1PKzHFkuY8C-1">
          <mxGeometry x="40" y="110" width="120" height="60" as="geometry" />
        </mxCell>
        <mxCell id="IvsaoeaK_1PKzHFkuY8C-9" style="edgeStyle=orthogonalEdgeStyle;rounded=0;orthogonalLoop=1;jettySize=auto;html=1;exitX=0.5;exitY=1;exitDx=0;exitDy=0;entryX=0.5;entryY=0;entryDx=0;entryDy=0;entryPerimeter=0;" edge="1" parent="IvsaoeaK_1PKzHFkuY8C-1" source="IvsaoeaK_1PKzHFkuY8C-4" target="IvsaoeaK_1PKzHFkuY8C-8">
          <mxGeometry relative="1" as="geometry" />
        </mxCell>
        <mxCell id="IvsaoeaK_1PKzHFkuY8C-4" value="Officer triggers batch job on quota transfer" style="rounded=0;whiteSpace=wrap;html=1;fillColor=#dae8fc;strokeColor=#6c8ebf;" vertex="1" parent="IvsaoeaK_1PKzHFkuY8C-1">
          <mxGeometry x="40" y="190" width="120" height="60" as="geometry" />
        </mxCell>
        <mxCell id="IvsaoeaK_1PKzHFkuY8C-11" value="No" style="edgeStyle=orthogonalEdgeStyle;rounded=0;orthogonalLoop=1;jettySize=auto;html=1;exitX=0.5;exitY=1;exitDx=0;exitDy=0;exitPerimeter=0;entryX=0.5;entryY=0;entryDx=0;entryDy=0;" edge="1" parent="IvsaoeaK_1PKzHFkuY8C-1" source="IvsaoeaK_1PKzHFkuY8C-8" target="IvsaoeaK_1PKzHFkuY8C-10">
          <mxGeometry relative="1" as="geometry" />
        </mxCell>
        <mxCell id="IvsaoeaK_1PKzHFkuY8C-8" value="Same&lt;br&gt;industry/sector?" style="strokeWidth=2;html=1;shape=mxgraph.flowchart.decision;whiteSpace=wrap;fillColor=#fff2cc;strokeColor=#d6b656;" vertex="1" parent="IvsaoeaK_1PKzHFkuY8C-1">
          <mxGeometry x="40" y="270" width="120" height="120" as="geometry" />
        </mxCell>
        <mxCell id="IvsaoeaK_1PKzHFkuY8C-13" style="edgeStyle=orthogonalEdgeStyle;rounded=0;orthogonalLoop=1;jettySize=auto;html=1;exitX=0.5;exitY=1;exitDx=0;exitDy=0;entryX=0.5;entryY=0;entryDx=0;entryDy=0;entryPerimeter=0;" edge="1" parent="IvsaoeaK_1PKzHFkuY8C-1" source="IvsaoeaK_1PKzHFkuY8C-10" target="IvsaoeaK_1PKzHFkuY8C-12">
          <mxGeometry relative="1" as="geometry" />
        </mxCell>
        <mxCell id="IvsaoeaK_1PKzHFkuY8C-10" value="Seek Approval" style="rounded=0;whiteSpace=wrap;html=1;fillColor=#dae8fc;strokeColor=#6c8ebf;" vertex="1" parent="IvsaoeaK_1PKzHFkuY8C-1">
          <mxGeometry x="40" y="430" width="120" height="60" as="geometry" />
        </mxCell>
        <mxCell id="IvsaoeaK_1PKzHFkuY8C-15" value="Reject" style="edgeStyle=orthogonalEdgeStyle;rounded=0;orthogonalLoop=1;jettySize=auto;html=1;exitX=0.5;exitY=1;exitDx=0;exitDy=0;exitPerimeter=0;entryX=0.5;entryY=0;entryDx=0;entryDy=0;" edge="1" parent="IvsaoeaK_1PKzHFkuY8C-1" source="IvsaoeaK_1PKzHFkuY8C-12" target="IvsaoeaK_1PKzHFkuY8C-14">
          <mxGeometry relative="1" as="geometry" />
        </mxCell>
        <mxCell id="IvsaoeaK_1PKzHFkuY8C-12" value="Approve/Reject?" style="strokeWidth=2;html=1;shape=mxgraph.flowchart.decision;whiteSpace=wrap;fillColor=#fff2cc;strokeColor=#d6b656;" vertex="1" parent="IvsaoeaK_1PKzHFkuY8C-1">
          <mxGeometry x="40" y="510" width="120" height="120" as="geometry" />
        </mxCell>
        <mxCell id="IvsaoeaK_1PKzHFkuY8C-14" value="End" style="ellipse;whiteSpace=wrap;html=1;fillColor=#d5e8d4;strokeColor=#82b366;" vertex="1" parent="IvsaoeaK_1PKzHFkuY8C-1">
          <mxGeometry x="62.5" y="760" width="75" height="50" as="geometry" />
        </mxCell>
        <mxCell id="IvsaoeaK_1PKzHFkuY8C-30" value="WINS frontend" style="swimlane;" vertex="1" parent="1">
          <mxGeometry x="210" y="80" width="200" height="890" as="geometry" />
        </mxCell>
        <mxCell id="IvsaoeaK_1PKzHFkuY8C-33" value="Work Pass Transfer" style="rounded=0;whiteSpace=wrap;html=1;fillColor=#dae8fc;strokeColor=#6c8ebf;" vertex="1" parent="IvsaoeaK_1PKzHFkuY8C-30">
          <mxGeometry x="40" y="110" width="120" height="60" as="geometry" />
        </mxCell>
        <mxCell id="IvsaoeaK_1PKzHFkuY8C-45" value="End" style="ellipse;whiteSpace=wrap;html=1;fillColor=#d5e8d4;strokeColor=#82b366;" vertex="1" parent="IvsaoeaK_1PKzHFkuY8C-30">
          <mxGeometry x="62.5" y="760" width="75" height="50" as="geometry" />
        </mxCell>
        <mxCell id="IvsaoeaK_1PKzHFkuY8C-76" style="edgeStyle=orthogonalEdgeStyle;rounded=0;orthogonalLoop=1;jettySize=auto;html=1;exitX=0.5;exitY=1;exitDx=0;exitDy=0;entryX=0.5;entryY=0;entryDx=0;entryDy=0;entryPerimeter=0;" edge="1" parent="IvsaoeaK_1PKzHFkuY8C-30" source="IvsaoeaK_1PKzHFkuY8C-58" target="IvsaoeaK_1PKzHFkuY8C-59">
          <mxGeometry relative="1" as="geometry" />
        </mxCell>
        <mxCell id="IvsaoeaK_1PKzHFkuY8C-58" value="Display&lt;br&gt;success/error" style="shape=parallelogram;perimeter=parallelogramPerimeter;whiteSpace=wrap;html=1;fixedSize=1;fillColor=#ffe6cc;strokeColor=#d79b00;" vertex="1" parent="IvsaoeaK_1PKzHFkuY8C-30">
          <mxGeometry x="35" y="377.5" width="130" height="60" as="geometry" />
        </mxCell>
        <mxCell id="IvsaoeaK_1PKzHFkuY8C-61" value="Yes" style="edgeStyle=orthogonalEdgeStyle;rounded=0;orthogonalLoop=1;jettySize=auto;html=1;exitX=0.5;exitY=1;exitDx=0;exitDy=0;exitPerimeter=0;entryX=0.5;entryY=0;entryDx=0;entryDy=0;" edge="1" parent="IvsaoeaK_1PKzHFkuY8C-30" source="IvsaoeaK_1PKzHFkuY8C-59" target="IvsaoeaK_1PKzHFkuY8C-60">
          <mxGeometry relative="1" as="geometry" />
        </mxCell>
        <mxCell id="IvsaoeaK_1PKzHFkuY8C-63" value="No" style="edgeStyle=orthogonalEdgeStyle;rounded=0;orthogonalLoop=1;jettySize=auto;html=1;exitX=0;exitY=0.5;exitDx=0;exitDy=0;exitPerimeter=0;entryX=0;entryY=0.5;entryDx=0;entryDy=0;" edge="1" parent="IvsaoeaK_1PKzHFkuY8C-30" source="IvsaoeaK_1PKzHFkuY8C-59" target="IvsaoeaK_1PKzHFkuY8C-45">
          <mxGeometry relative="1" as="geometry">
            <Array as="points">
              <mxPoint x="30" y="570" />
              <mxPoint x="30" y="785" />
            </Array>
          </mxGeometry>
        </mxCell>
        <mxCell id="IvsaoeaK_1PKzHFkuY8C-59" value="Error?" style="strokeWidth=2;html=1;shape=mxgraph.flowchart.decision;whiteSpace=wrap;fillColor=#fff2cc;strokeColor=#d6b656;" vertex="1" parent="IvsaoeaK_1PKzHFkuY8C-30">
          <mxGeometry x="40" y="510" width="120" height="120" as="geometry" />
        </mxCell>
        <mxCell id="IvsaoeaK_1PKzHFkuY8C-62" style="edgeStyle=orthogonalEdgeStyle;rounded=0;orthogonalLoop=1;jettySize=auto;html=1;exitX=0.5;exitY=1;exitDx=0;exitDy=0;entryX=0.5;entryY=0;entryDx=0;entryDy=0;" edge="1" parent="IvsaoeaK_1PKzHFkuY8C-30" source="IvsaoeaK_1PKzHFkuY8C-60" target="IvsaoeaK_1PKzHFkuY8C-45">
          <mxGeometry relative="1" as="geometry" />
        </mxCell>
        <mxCell id="IvsaoeaK_1PKzHFkuY8C-60" value="Log case with helpdesk" style="rounded=0;whiteSpace=wrap;html=1;fillColor=#dae8fc;strokeColor=#6c8ebf;" vertex="1" parent="IvsaoeaK_1PKzHFkuY8C-30">
          <mxGeometry x="40" y="660" width="120" height="60" as="geometry" />
        </mxCell>
        <mxCell id="IvsaoeaK_1PKzHFkuY8C-31" value="WINS backend" style="swimlane;" vertex="1" parent="1">
          <mxGeometry x="410" y="80" width="200" height="890" as="geometry" />
        </mxCell>
        <mxCell id="IvsaoeaK_1PKzHFkuY8C-70" style="edgeStyle=orthogonalEdgeStyle;rounded=0;orthogonalLoop=1;jettySize=auto;html=1;exitX=0.5;exitY=1;exitDx=0;exitDy=0;exitPerimeter=0;entryX=0.5;entryY=0;entryDx=0;entryDy=0;" edge="1" parent="IvsaoeaK_1PKzHFkuY8C-31" source="IvsaoeaK_1PKzHFkuY8C-34" target="IvsaoeaK_1PKzHFkuY8C-36">
          <mxGeometry relative="1" as="geometry" />
        </mxCell>
        <mxCell id="IvsaoeaK_1PKzHFkuY8C-34" value="&lt;br&gt;Insert to TransferRequest tables" style="strokeWidth=2;html=1;shape=mxgraph.flowchart.database;whiteSpace=wrap;fillColor=#e1d5e7;strokeColor=#9673a6;" vertex="1" parent="IvsaoeaK_1PKzHFkuY8C-31">
          <mxGeometry x="45" y="42.5" width="110" height="75" as="geometry" />
        </mxCell>
        <mxCell id="IvsaoeaK_1PKzHFkuY8C-71" style="edgeStyle=orthogonalEdgeStyle;rounded=0;orthogonalLoop=1;jettySize=auto;html=1;exitX=0.5;exitY=1;exitDx=0;exitDy=0;entryX=0.5;entryY=0;entryDx=0;entryDy=0;entryPerimeter=0;" edge="1" parent="IvsaoeaK_1PKzHFkuY8C-31" source="IvsaoeaK_1PKzHFkuY8C-36" target="IvsaoeaK_1PKzHFkuY8C-37">
          <mxGeometry relative="1" as="geometry" />
        </mxCell>
        <mxCell id="IvsaoeaK_1PKzHFkuY8C-36" value="Process Transfer" style="rounded=0;whiteSpace=wrap;html=1;fillColor=#dae8fc;strokeColor=#6c8ebf;" vertex="1" parent="IvsaoeaK_1PKzHFkuY8C-31">
          <mxGeometry x="40" y="140" width="120" height="60" as="geometry" />
        </mxCell>
        <mxCell id="IvsaoeaK_1PKzHFkuY8C-72" value="Yes" style="edgeStyle=orthogonalEdgeStyle;rounded=0;orthogonalLoop=1;jettySize=auto;html=1;exitX=0.5;exitY=1;exitDx=0;exitDy=0;exitPerimeter=0;entryX=0.5;entryY=0;entryDx=0;entryDy=0;entryPerimeter=0;" edge="1" parent="IvsaoeaK_1PKzHFkuY8C-31" source="IvsaoeaK_1PKzHFkuY8C-37" target="IvsaoeaK_1PKzHFkuY8C-38">
          <mxGeometry relative="1" as="geometry" />
        </mxCell>
        <mxCell id="IvsaoeaK_1PKzHFkuY8C-73" value="No" style="edgeStyle=orthogonalEdgeStyle;rounded=0;orthogonalLoop=1;jettySize=auto;html=1;exitX=1;exitY=0.5;exitDx=0;exitDy=0;exitPerimeter=0;entryX=1;entryY=0.5;entryDx=0;entryDy=0;entryPerimeter=0;" edge="1" parent="IvsaoeaK_1PKzHFkuY8C-31" source="IvsaoeaK_1PKzHFkuY8C-37" target="IvsaoeaK_1PKzHFkuY8C-39">
          <mxGeometry relative="1" as="geometry" />
        </mxCell>
        <mxCell id="IvsaoeaK_1PKzHFkuY8C-37" value="Error during processing?" style="strokeWidth=2;html=1;shape=mxgraph.flowchart.decision;whiteSpace=wrap;fillColor=#fff2cc;strokeColor=#d6b656;" vertex="1" parent="IvsaoeaK_1PKzHFkuY8C-31">
          <mxGeometry x="40" y="220" width="120" height="120" as="geometry" />
        </mxCell>
        <mxCell id="IvsaoeaK_1PKzHFkuY8C-38" value="&lt;br&gt;Insert to exception/error tables" style="strokeWidth=2;html=1;shape=mxgraph.flowchart.database;whiteSpace=wrap;fillColor=#e1d5e7;strokeColor=#9673a6;" vertex="1" parent="IvsaoeaK_1PKzHFkuY8C-31">
          <mxGeometry x="45" y="370" width="110" height="75" as="geometry" />
        </mxCell>
        <mxCell id="IvsaoeaK_1PKzHFkuY8C-77" style="edgeStyle=orthogonalEdgeStyle;rounded=0;orthogonalLoop=1;jettySize=auto;html=1;exitX=0.5;exitY=1;exitDx=0;exitDy=0;exitPerimeter=0;entryX=0.5;entryY=0;entryDx=0;entryDy=0;entryPerimeter=0;" edge="1" parent="IvsaoeaK_1PKzHFkuY8C-31" source="IvsaoeaK_1PKzHFkuY8C-39" target="IvsaoeaK_1PKzHFkuY8C-40">
          <mxGeometry relative="1" as="geometry" />
        </mxCell>
        <mxCell id="IvsaoeaK_1PKzHFkuY8C-39" value="&lt;br&gt;Update application table on employer changed" style="strokeWidth=2;html=1;shape=mxgraph.flowchart.database;whiteSpace=wrap;fillColor=#e1d5e7;strokeColor=#9673a6;" vertex="1" parent="IvsaoeaK_1PKzHFkuY8C-31">
          <mxGeometry x="45" y="460" width="110" height="75" as="geometry" />
        </mxCell>
        <mxCell id="IvsaoeaK_1PKzHFkuY8C-78" style="edgeStyle=orthogonalEdgeStyle;rounded=0;orthogonalLoop=1;jettySize=auto;html=1;exitX=0.5;exitY=1;exitDx=0;exitDy=0;exitPerimeter=0;entryX=0.5;entryY=0;entryDx=0;entryDy=0;" edge="1" parent="IvsaoeaK_1PKzHFkuY8C-31" source="IvsaoeaK_1PKzHFkuY8C-40" target="IvsaoeaK_1PKzHFkuY8C-42">
          <mxGeometry relative="1" as="geometry" />
        </mxCell>
        <mxCell id="IvsaoeaK_1PKzHFkuY8C-40" value="&lt;br&gt;Insert to event table (TB_AUDIT)" style="strokeWidth=2;html=1;shape=mxgraph.flowchart.database;whiteSpace=wrap;fillColor=#e1d5e7;strokeColor=#9673a6;" vertex="1" parent="IvsaoeaK_1PKzHFkuY8C-31">
          <mxGeometry x="45" y="560" width="110" height="75" as="geometry" />
        </mxCell>
        <mxCell id="IvsaoeaK_1PKzHFkuY8C-80" style="edgeStyle=orthogonalEdgeStyle;rounded=0;orthogonalLoop=1;jettySize=auto;html=1;exitX=0.5;exitY=1;exitDx=0;exitDy=0;entryX=0.5;entryY=0;entryDx=0;entryDy=0;" edge="1" parent="IvsaoeaK_1PKzHFkuY8C-31" source="IvsaoeaK_1PKzHFkuY8C-42" target="IvsaoeaK_1PKzHFkuY8C-46">
          <mxGeometry relative="1" as="geometry" />
        </mxCell>
        <mxCell id="IvsaoeaK_1PKzHFkuY8C-42" value="Call WINSRULES API" style="rounded=0;whiteSpace=wrap;html=1;fillColor=#dae8fc;strokeColor=#6c8ebf;" vertex="1" parent="IvsaoeaK_1PKzHFkuY8C-31">
          <mxGeometry x="40" y="670" width="120" height="60" as="geometry" />
        </mxCell>
        <mxCell id="IvsaoeaK_1PKzHFkuY8C-46" value="End" style="ellipse;whiteSpace=wrap;html=1;fillColor=#d5e8d4;strokeColor=#82b366;" vertex="1" parent="IvsaoeaK_1PKzHFkuY8C-31">
          <mxGeometry x="62.5" y="760" width="75" height="50" as="geometry" />
        </mxCell>
        <mxCell id="IvsaoeaK_1PKzHFkuY8C-32" value="Other systems" style="swimlane;" vertex="1" parent="1">
          <mxGeometry x="610" y="80" width="200" height="890" as="geometry" />
        </mxCell>
        <mxCell id="IvsaoeaK_1PKzHFkuY8C-41" value="ICA Job" style="rounded=0;whiteSpace=wrap;html=1;fillColor=#dae8fc;strokeColor=#6c8ebf;" vertex="1" parent="IvsaoeaK_1PKzHFkuY8C-32">
          <mxGeometry x="40" y="567.5" width="120" height="60" as="geometry" />
        </mxCell>
        <mxCell id="IvsaoeaK_1PKzHFkuY8C-43" value="Update IWPS on SPass" style="rounded=0;whiteSpace=wrap;html=1;fillColor=#f8cecc;strokeColor=#b85450;" vertex="1" parent="IvsaoeaK_1PKzHFkuY8C-32">
          <mxGeometry x="40" y="670" width="120" height="60" as="geometry" />
        </mxCell>
        <mxCell id="IvsaoeaK_1PKzHFkuY8C-56" value="Card Replacement" style="rounded=0;whiteSpace=wrap;html=1;fillColor=#dae8fc;strokeColor=#6c8ebf;" vertex="1" parent="IvsaoeaK_1PKzHFkuY8C-32">
          <mxGeometry x="40" y="50" width="120" height="60" as="geometry" />
        </mxCell>
        <mxCell id="IvsaoeaK_1PKzHFkuY8C-44" style="edgeStyle=orthogonalEdgeStyle;rounded=0;orthogonalLoop=1;jettySize=auto;html=1;exitX=1;exitY=0.5;exitDx=0;exitDy=0;entryX=0;entryY=0.5;entryDx=0;entryDy=0;" edge="1" parent="1" source="IvsaoeaK_1PKzHFkuY8C-42" target="IvsaoeaK_1PKzHFkuY8C-43">
          <mxGeometry relative="1" as="geometry" />
        </mxCell>
        <mxCell id="IvsaoeaK_1PKzHFkuY8C-64" value="Approve" style="edgeStyle=orthogonalEdgeStyle;rounded=0;orthogonalLoop=1;jettySize=auto;html=1;exitX=1;exitY=0.5;exitDx=0;exitDy=0;exitPerimeter=0;entryX=0;entryY=0.5;entryDx=0;entryDy=0;" edge="1" parent="1" source="IvsaoeaK_1PKzHFkuY8C-12" target="IvsaoeaK_1PKzHFkuY8C-33">
          <mxGeometry relative="1" as="geometry">
            <Array as="points">
              <mxPoint x="220" y="650" />
              <mxPoint x="220" y="220" />
            </Array>
          </mxGeometry>
        </mxCell>
        <mxCell id="IvsaoeaK_1PKzHFkuY8C-68" value="Yes" style="edgeStyle=orthogonalEdgeStyle;rounded=0;orthogonalLoop=1;jettySize=auto;html=1;exitX=1;exitY=0.5;exitDx=0;exitDy=0;exitPerimeter=0;entryX=0;entryY=0.5;entryDx=0;entryDy=0;" edge="1" parent="1" source="IvsaoeaK_1PKzHFkuY8C-8" target="IvsaoeaK_1PKzHFkuY8C-33">
          <mxGeometry relative="1" as="geometry">
            <Array as="points">
              <mxPoint x="190" y="410" />
              <mxPoint x="190" y="220" />
            </Array>
          </mxGeometry>
        </mxCell>
        <mxCell id="IvsaoeaK_1PKzHFkuY8C-69" style="edgeStyle=orthogonalEdgeStyle;rounded=0;orthogonalLoop=1;jettySize=auto;html=1;exitX=1;exitY=0.5;exitDx=0;exitDy=0;entryX=0;entryY=0.5;entryDx=0;entryDy=0;entryPerimeter=0;" edge="1" parent="1" source="IvsaoeaK_1PKzHFkuY8C-33" target="IvsaoeaK_1PKzHFkuY8C-34">
          <mxGeometry relative="1" as="geometry">
            <Array as="points">
              <mxPoint x="420" y="220" />
              <mxPoint x="420" y="160" />
            </Array>
          </mxGeometry>
        </mxCell>
        <mxCell id="IvsaoeaK_1PKzHFkuY8C-74" style="edgeStyle=orthogonalEdgeStyle;rounded=0;orthogonalLoop=1;jettySize=auto;html=1;exitX=0;exitY=0.5;exitDx=0;exitDy=0;exitPerimeter=0;entryX=1;entryY=0.5;entryDx=0;entryDy=0;" edge="1" parent="1" source="IvsaoeaK_1PKzHFkuY8C-38" target="IvsaoeaK_1PKzHFkuY8C-58">
          <mxGeometry relative="1" as="geometry" />
        </mxCell>
        <mxCell id="IvsaoeaK_1PKzHFkuY8C-75" style="edgeStyle=orthogonalEdgeStyle;rounded=0;orthogonalLoop=1;jettySize=auto;html=1;exitX=0;exitY=0.5;exitDx=0;exitDy=0;exitPerimeter=0;" edge="1" parent="1" source="IvsaoeaK_1PKzHFkuY8C-39">
          <mxGeometry relative="1" as="geometry">
            <mxPoint x="365" y="488" as="targetPoint" />
          </mxGeometry>
        </mxCell>
        <mxCell id="IvsaoeaK_1PKzHFkuY8C-79" style="edgeStyle=orthogonalEdgeStyle;rounded=0;orthogonalLoop=1;jettySize=auto;html=1;exitX=1;exitY=0.5;exitDx=0;exitDy=0;exitPerimeter=0;entryX=0;entryY=0.5;entryDx=0;entryDy=0;" edge="1" parent="1" source="IvsaoeaK_1PKzHFkuY8C-40" target="IvsaoeaK_1PKzHFkuY8C-41">
          <mxGeometry relative="1" as="geometry" />
        </mxCell>
        <mxCell id="IvsaoeaK_1PKzHFkuY8C-81" style="edgeStyle=orthogonalEdgeStyle;rounded=0;orthogonalLoop=1;jettySize=auto;html=1;exitX=1;exitY=0.5;exitDx=0;exitDy=0;exitPerimeter=0;entryX=0;entryY=0.5;entryDx=0;entryDy=0;" edge="1" parent="1" source="IvsaoeaK_1PKzHFkuY8C-34" target="IvsaoeaK_1PKzHFkuY8C-56">
          <mxGeometry relative="1" as="geometry" />
        </mxCell>
      </root>
    </mxGraphModel>
  </diagram>
</mxfile>
